Coordinates
version=1
nRows=19
nColumns=36
inDegrees=yes

Units are S.I. units (second, meters, Newtons, ...)
Angles are in degrees.

endheader
time	pelvis_tilt	pelvis_list	pelvis_rotation	pelvis_tx	pelvis_ty	pelvis_tz	hip_flexion_r	hip_adduction_r	hip_rotation_r	knee_angle_r	ankle_angle_r	subtalar_angle_r	hip_flexion_l	hip_adduction_l	hip_rotation_l	knee_angle_l	ankle_angle_l	subtalar_angle_l	lumbar_extension	lumbar_bending	lumbar_rotation	arm_flex_r	arm_add_r	arm_rot_r	elbow_flex_r	pro_sup_r	wrist_flex_r	wrist_dev_r	arm_flex_l	arm_add_l	arm_rot_l	elbow_flex_l	pro_sup_l	wrist_flex_l	wrist_dev_l
      2.38000000	      1.10198068	      2.67972209	      7.05636270	      0.07969401	      0.90045405	      0.18283734	     27.55199003	     -2.66696405	    -12.43522683	    -12.05929915	      3.76260331	      4.97042013	    -17.43414860	      4.66636627	      6.64543163	    -14.06388121	     13.58922433	      8.20597354	     -8.04111435	     -2.18032854	    -11.08279447	     -7.07374458	    -13.22419915	     13.04983244	      6.62602520	     86.51662706	      0.00000000	      0.00000000	      6.92633411	    -23.08400200	     16.07956953	     43.38035058	     86.51662706	      0.00000000	      0.00000000
      2.39000000	      1.14387119	      2.60592873	      7.15538147	      0.09485782	      0.89888171	      0.18307581	     27.58046277	     -2.47058819	    -12.33981240	    -13.27555331	      3.19576187	      3.67405390	    -17.87227438	      4.35938734	      6.35521957	    -15.08095987	     13.30775862	      9.05573118	     -7.88065586	     -2.06327515	    -11.15148685	     -7.12503885	    -13.22757642	     13.34133553	      6.56110716	     86.51662706	      0.00000000	      0.00000000	      6.59587944	    -23.05661592	     15.82733150	     43.64586211	     86.51662706	      0.00000000	      0.00000000
      2.40000000	      1.14896711	      2.46954191	      7.23344313	      0.11023836	      0.89722139	      0.18326702	     27.61223693	     -2.18713212	    -12.11362041	    -14.69286618	      2.27713967	      2.05167112	    -18.17152247	      3.98096827	      5.96140968	    -16.26054816	     12.90137622	     10.00780133	     -7.65142148	     -1.85798017	    -11.16814520	     -7.18329178	    -13.26745578	     13.62046035	      6.53665352	     86.51662706	      0.00000000	      0.00000000	      6.20874185	    -22.97669488	     15.58131411	     43.79854073	     86.51662706	      0.00000000	      0.00000000
      2.41000000	      1.12735558	      2.23833805	      7.27349995	      0.12576833	      0.89548657	      0.18346959	     27.68194482	     -1.78372738	    -11.76024236	    -16.21462976	      1.01948815	      0.22974630	    -18.32126196	      3.50258420	      5.46982139	    -17.61013286	     12.29962640	     11.02309865	     -7.36834613	     -1.52705561	    -11.10957186	     -7.23840119	    -13.34533244	     13.87489150	      6.55414686	     86.51662706	      0.00000000	      0.00000000	      5.78188326	    -22.83323325	     15.33961701	     43.82784594	     86.51662706	      0.00000000	      0.00000000
      2.42000000	      1.09656041	      1.87935421	      7.26118598	      0.14136281	      0.89386795	      0.18377271	     27.81521842	     -1.23681091	    -11.28027851	    -17.78162700	     -0.50259301	     -1.66481937	    -18.31016146	      2.90042291	      4.89277146	    -19.14214888	     11.41314379	     12.05013765	     -7.05377729	     -1.03906436	    -10.96004779	     -7.27721588	    -13.46178289	     14.09111825	      6.61726303	     86.51662706	      0.00000000	      0.00000000	      5.33102537	    -22.61771477	     15.10115299	     43.72516410	     86.51662706	      0.00000000	      0.00000000
      2.43000000	      1.06907651	      1.36968484	      7.18907814	      0.15689955	      0.89267799	      0.18423424	     28.00835937	     -0.53341826	    -10.67735002	    -19.37047450	     -2.15818265	     -3.51509554	    -18.12537433	      2.16461346	      4.24913848	    -20.87003786	     10.14523432	     13.03005444	     -6.73109739	     -0.37847199	    -10.71549647	     -7.28677031	    -13.61631838	     14.25535398	      6.73182659	     86.51662706	      0.00000000	      0.00000000	      4.86760086	    -22.32700417	     14.86683071	     43.48490299	     86.51662706	      0.00000000	      0.00000000
      2.44000000	      1.04792571	      0.70864715	      7.05834576	      0.17229389	      0.89211975	      0.18481611	     28.22609167	      0.32758778	     -9.96867483	    -20.97079237	     -3.78111503	     -5.22255436	    -17.75475195	      1.30495752	      3.56468512	    -22.80448451	      8.41024593	     13.90239036	     -6.41939018	      0.44682154	    -10.38432975	     -7.25719910	    -13.80690669	     14.35461165	      6.90553376	     86.51662706	      0.00000000	      0.00000000	      4.39792201	    -21.96565449	     14.64070099	     43.10514747	     86.51662706	      0.00000000	      0.00000000
      2.45000000	      1.03241356	     -0.07754731	      6.87711488	      0.18757988	      0.89212022	      0.18542323	     28.41755195	      1.33117040	     -9.19341748	    -22.55514727	     -5.19976259	     -6.71258662	    -17.18974360	      0.34925445	      2.87307190	    -24.95069415	      6.15607566	     14.61049730	     -6.13144994	      1.40394736	     -9.98504094	     -7.18330482	    -14.02930357	     14.37786695	      7.14747692	     86.51662706	      0.00000000	      0.00000000	      3.92506971	    -21.54653768	     14.43080501	     42.58763152	     86.51662706	      0.00000000	      0.00000000
      2.46000000	      1.02196176	     -0.94209013	      6.65776348	      0.20284220	      0.89241104	      0.18601063	     28.53281335	      2.44284017	     -8.41260108	    -24.06594683	     -6.26701111	     -7.93655885	    -16.42615672	     -0.66443992	      2.21678644	    -27.30701700	      3.38635734	     15.10575341	     -5.87528135	      2.44112737	     -9.54175216	     -7.06443759	    -14.27666825	     14.31723270	      7.46746278	     86.51662706	      0.00000000	      0.00000000	      3.45273857	    -21.08908078	     14.24957700	     41.93694716	     86.51662706	      0.00000000	      0.00000000
      2.47000000	      1.01316531	     -1.83060359	      6.41641224	      0.21806287	      0.89275538	      0.18661390	     28.52969660	      3.61209197	     -7.69907150	    -25.42816013	     -6.88404535	     -8.87051659	    -15.46318574	     -1.69630739	      1.64601798	    -29.86538713	      0.17680487	     15.35041901	     -5.65723434	      3.49957441	     -9.07947857	     -6.90320064	    -14.53993682	     14.16904487	      7.87508201	     86.51662706	      0.00000000	      0.00000000	      2.98918816	    -20.61532320	     14.11378219	     41.15916009	     86.51662706	      0.00000000	      0.00000000
      2.48000000	      0.99916764	     -2.69510674	      6.17473274	      0.23308930	      0.89309208	      0.18727944	     28.37645273	      4.78103754	     -7.12127028	    -26.57412904	     -7.01382777	     -9.51140439	    -14.30268239	     -2.70937821	      1.21388313	    -32.61316339	     -3.31969281	     15.31960761	     -5.48441481	      4.52668231	     -8.62062190	     -6.70391384	    -14.80908744	     13.93472419	      8.37853862	     86.51662706	      0.00000000	      0.00000000	      2.54932026	    -20.14510292	     14.04400001	     40.26026105	     86.51662706	      0.00000000	      0.00000000
      2.49000000	      0.97620305	     -3.50393297	      5.96059254	      0.24775092	      0.89350024	      0.18799848	     28.05508896	      5.89292494	     -6.72787342	    -27.46265908	     -6.68212615	     -9.87232555	    -12.94927605	     -3.66997354	      0.96838357	    -35.53429182	     -6.88301768	     15.00310182	     -5.36496359	      5.48521659	     -8.18322926	     -6.47154917	    -15.07499304	     13.62125421	      8.98339042	     86.51662706	      0.00000000	      0.00000000	      2.15384799	    -19.69225575	     14.06358423	     39.24502267	     86.51662706	      0.00000000	      0.00000000
      2.50000000	      0.94971267	     -4.24261412	      5.80488807	      0.26196910	      0.89408851	      0.18870645	     27.56234764	      6.89899047	     -6.53966362	    -28.08504567	     -5.96649278	     -9.97820676	    -11.41129137	     -4.54703911	      0.94352806	    -38.60761020	    -10.25155962	     14.40740059	     -5.30639514	      6.35526041	     -7.78051894	     -6.21128673	    -15.33123339	     13.24113256	      9.69149769	     86.51662706	      0.00000000	      0.00000000	      1.82585178	    -19.26327559	     14.19698506	     38.11675271	     86.51662706	      0.00000000	      0.00000000
      2.51000000	      0.93265838	     -4.90529104	      5.73565503	      0.27576857	      0.89493439	      0.18931101	     26.90638536	      7.76451310	     -6.55042504	    -28.45926311	     -4.97662151	     -9.86230990	     -9.70252887	     -5.31239177	      1.15271930	    -41.80206846	    -13.16055486	     13.55759726	     -5.31336222	      7.12946112	     -7.42081581	     -5.92836217	    -15.57517834	     12.81170863	     10.50050160	     86.51662706	      0.00000000	      0.00000000	      1.58597145	    -18.85867566	     14.46741052	     36.87814821	     86.51662706	      0.00000000	      0.00000000
      2.52000000	      0.93787168	     -5.48440712	      5.77215888	      0.28922498	      0.89608525	      0.18971283	     26.10157487	      8.47239032	     -6.73397264	    -28.61706183	     -3.83159497	     -9.56332421	     -7.84395110	     -5.94092432	      1.58649932	    -45.07098381	    -15.38594876	     12.49787747	     -5.38616933	      7.80522473	     -7.10739096	     -5.62785160	    -15.80792850	     12.35391747	     11.40400980	     86.51662706	      0.00000000	      0.00000000	      1.44778353	    -18.47606874	     14.89399571	     35.53308206	     86.51662706	      0.00000000	      0.00000000
      2.53000000	      0.97135260	     -5.96778979	      5.92070594	      0.30240774	      0.89756572	      0.18984171	     25.16409811	      9.02173208	     -7.05292430	    -28.59036449	     -2.63958978	     -9.12265266	     -5.86323108	     -6.40942005	      2.21499456	    -48.34847944	    -16.78392584	     11.28904274	     -5.52046890	      8.37820248	     -6.83821344	     -5.31438020	    -16.03320073	     11.89053081	     12.39243159	     86.51662706	      0.00000000	      0.00000000	      1.41458827	    -18.11338594	     15.48884752	     34.08883947	     86.51662706	      0.00000000	      0.00000000
      2.54000000	      1.03087337	     -6.34325698	      6.17278755	      0.31535379	      0.89936474	      0.18970649	     24.10963160	      9.42245788	     -7.46591726	    -28.40268358	     -1.48408640	     -8.58164366	     -3.79186007	     -6.69584543	      2.99406877	    -51.55105456	    -17.31563194	     10.00193681	     -5.70776336	      8.83984102	     -6.60589652	     -4.99200782	    -16.25571047	     11.44412744	     13.45421697	     86.51662706	      0.00000000	      0.00000000	      1.47817789	    -17.77087469	     16.25445514	     32.55815779	     86.51662706	      0.00000000	      0.00000000
      2.55000000	      1.10835279	     -6.60342188	      6.50581918	      0.32807489	      0.90143356	      0.18939402	     22.95340183	      9.68951100	     -7.93192971	    -28.06789402	     -0.41823857	     -7.97886489	     -1.66245995	     -6.78238928	      3.87309980	    -54.58585683	    -17.04935173	      8.70725842	     -5.93617816	      9.17924534	     -6.39817625	     -4.66447257	    -16.47975741	     11.03502322	     14.57719226	     86.51662706	      0.00000000	      0.00000000	      1.61961691	    -17.45129054	     17.18195711	     30.96045414	     86.51662706	      0.00000000	      0.00000000
      2.56000000	      1.19263296	     -6.74681817	      6.88690079	      0.34058345	      0.90371170	      0.18900528	     21.71149486	      9.83928166	     -8.41212925	    -27.59481936	      0.53340460	     -7.34788568	      0.49217940	     -6.66121384	      4.80131317	    -57.36364505	    -16.13890695	      7.46428852	     -6.19131253	      9.38741609	     -6.19914292	     -4.33567452	    -16.70848006	     10.67940908	     15.74974495	     86.51662706	      0.00000000	      0.00000000	      1.81175140	    -17.15860214	     18.25065102	     29.32183314	     86.51662706	      0.00000000	      0.00000000
